<svg width="24" height="24" viewBox="0 0 24 24" fill="none" xmlns="http://www.w3.org/2000/svg">
<path d="M12 1C5.9225 1 1 5.8208 1 11.7664C1 16.5242 4.1515 20.5589 8.52125 21.9814C9.07125 22.0828 9.27292 21.7495 9.27292 21.4637C9.27292 21.2081 9.26375 20.5306 9.25917 19.6331C6.19933 20.2823 5.554 18.1887 5.554 18.1887C5.0535 16.9461 4.33025 16.6137 4.33025 16.6137C3.33383 15.9463 4.40725 15.96 4.40725 15.96C5.51183 16.0349 6.09208 17.0693 6.09208 17.0693C7.07292 18.7155 8.667 18.2398 9.29583 17.965C9.39483 17.2684 9.67808 16.7945 9.9925 16.5252C7.54958 16.2558 4.982 15.33 4.982 11.2049C4.982 10.0299 5.40825 9.06936 6.11408 8.31611C5.99033 8.04402 5.61908 6.9493 6.21033 5.46654C6.21033 5.46654 7.13158 5.17802 9.23533 6.57039C10.1153 6.33118 11.0503 6.21249 11.9853 6.20701C12.9203 6.21249 13.8553 6.33118 14.7353 6.57039C16.8253 5.17802 17.7466 5.46654 17.7466 5.46654C18.3378 6.9493 17.9666 8.04402 17.8566 8.31611C18.5578 9.06936 18.9841 10.0299 18.9841 11.2049C18.9841 15.341 16.4128 16.2513 13.9653 16.516C14.3503 16.8392 14.7078 17.4994 14.7078 18.5083C14.7078 19.949 14.6941 21.1067 14.6941 21.4564C14.6941 21.7386 14.8866 22.0755 15.4503 21.9677C19.8512 20.5544 23 16.5169 23 11.7664C23 5.8208 18.0747 1 12 1Z" fill="#EBA417"/>
</svg>
